<svg width="48" height="25" viewBox="0 0 48 25" fill="none" xmlns="http://www.w3.org/2000/svg">
<rect width="48" height="25" rx="12.5" fill="#8A1D18"/>
<path d="M12.3916 12.25V12.6406C12.3916 13.1777 12.3216 13.6595 12.1816 14.0859C12.0417 14.5124 11.8415 14.8753 11.5811 15.1748C11.3239 15.4743 11.0146 15.7038 10.6533 15.8633C10.292 16.0195 9.8916 16.0977 9.45215 16.0977C9.01595 16.0977 8.61719 16.0195 8.25586 15.8633C7.89779 15.7038 7.58691 15.4743 7.32324 15.1748C7.05957 14.8753 6.85449 14.5124 6.70801 14.0859C6.56478 13.6595 6.49316 13.1777 6.49316 12.6406V12.25C6.49316 11.7129 6.56478 11.2327 6.70801 10.8096C6.85124 10.3831 7.05306 10.0202 7.31348 9.7207C7.57715 9.41797 7.88802 9.18848 8.24609 9.03223C8.60742 8.87272 9.00618 8.79297 9.44238 8.79297C9.88184 8.79297 10.2822 8.87272 10.6436 9.03223C11.0049 9.18848 11.3158 9.41797 11.5762 9.7207C11.8366 10.0202 12.0368 10.3831 12.1768 10.8096C12.32 11.2327 12.3916 11.7129 12.3916 12.25ZM11.166 12.6406V12.2402C11.166 11.8431 11.127 11.4932 11.0488 11.1904C10.974 10.8844 10.8617 10.6289 10.7119 10.4238C10.5654 10.2155 10.3848 10.0592 10.1699 9.95508C9.95508 9.84766 9.71257 9.79395 9.44238 9.79395C9.1722 9.79395 8.93132 9.84766 8.71973 9.95508C8.50814 10.0592 8.32747 10.2155 8.17773 10.4238C8.03125 10.6289 7.91895 10.8844 7.84082 11.1904C7.7627 11.4932 7.72363 11.8431 7.72363 12.2402V12.6406C7.72363 13.0378 7.7627 13.3893 7.84082 13.6953C7.91895 14.0013 8.03288 14.2601 8.18262 14.4717C8.33561 14.68 8.5179 14.8379 8.72949 14.9453C8.94108 15.0495 9.18197 15.1016 9.45215 15.1016C9.72559 15.1016 9.9681 15.0495 10.1797 14.9453C10.3913 14.8379 10.5703 14.68 10.7168 14.4717C10.8633 14.2601 10.974 14.0013 11.0488 13.6953C11.127 13.3893 11.166 13.0378 11.166 12.6406ZM17.8164 13.6855H19.0371C18.998 14.151 18.8678 14.5661 18.6465 14.9307C18.4251 15.292 18.1143 15.5768 17.7139 15.7852C17.3135 15.9935 16.8268 16.0977 16.2539 16.0977C15.8145 16.0977 15.4189 16.0195 15.0674 15.8633C14.7158 15.7038 14.4147 15.4792 14.1641 15.1895C13.9134 14.8965 13.7214 14.5433 13.5879 14.1299C13.4577 13.7165 13.3926 13.2542 13.3926 12.7432V12.1523C13.3926 11.6413 13.4593 11.179 13.5928 10.7656C13.7295 10.3522 13.9248 9.99902 14.1787 9.70605C14.4326 9.40983 14.737 9.18359 15.0918 9.02734C15.4499 8.87109 15.8519 8.79297 16.2979 8.79297C16.8643 8.79297 17.3428 8.89714 17.7334 9.10547C18.124 9.3138 18.4268 9.60189 18.6416 9.96973C18.8597 10.3376 18.9932 10.7591 19.042 11.2344H17.8213C17.7887 10.9284 17.7171 10.6663 17.6064 10.4482C17.499 10.2301 17.3395 10.0641 17.1279 9.9502C16.9163 9.83301 16.6396 9.77441 16.2979 9.77441C16.0179 9.77441 15.7738 9.8265 15.5654 9.93066C15.3571 10.0348 15.1829 10.1878 15.043 10.3896C14.903 10.5915 14.7972 10.8405 14.7256 11.1367C14.6572 11.4297 14.623 11.765 14.623 12.1426V12.7432C14.623 13.1012 14.654 13.4268 14.7158 13.7197C14.7809 14.0094 14.8786 14.2585 15.0088 14.4668C15.1423 14.6751 15.3115 14.8363 15.5166 14.9502C15.7217 15.0641 15.9674 15.1211 16.2539 15.1211C16.6022 15.1211 16.8838 15.0658 17.0986 14.9551C17.3167 14.8444 17.4811 14.6833 17.5918 14.4717C17.7057 14.2568 17.7806 13.9948 17.8164 13.6855ZM22.9287 8.89062V16H21.7129V8.89062H22.9287ZM25.1602 8.89062V9.86719H19.501V8.89062H25.1602ZM28.7979 13.3486H26.9473V12.377H28.7979C29.1201 12.377 29.3805 12.3249 29.5791 12.2207C29.7777 12.1165 29.9225 11.9733 30.0137 11.791C30.1081 11.6055 30.1553 11.3939 30.1553 11.1562C30.1553 10.9316 30.1081 10.7217 30.0137 10.5264C29.9225 10.3278 29.7777 10.1683 29.5791 10.0479C29.3805 9.92741 29.1201 9.86719 28.7979 9.86719H27.3232V16H26.0977V8.89062H28.7979C29.348 8.89062 29.8151 8.98828 30.1992 9.18359C30.5866 9.37565 30.8812 9.64258 31.083 9.98438C31.2848 10.3229 31.3857 10.7103 31.3857 11.1465C31.3857 11.6055 31.2848 11.9993 31.083 12.3281C30.8812 12.6569 30.5866 12.9092 30.1992 13.085C29.8151 13.2607 29.348 13.3486 28.7979 13.3486ZM38.1533 12.25V12.6406C38.1533 13.1777 38.0833 13.6595 37.9434 14.0859C37.8034 14.5124 37.6032 14.8753 37.3428 15.1748C37.0856 15.4743 36.7764 15.7038 36.415 15.8633C36.0537 16.0195 35.6533 16.0977 35.2139 16.0977C34.7777 16.0977 34.3789 16.0195 34.0176 15.8633C33.6595 15.7038 33.3486 15.4743 33.085 15.1748C32.8213 14.8753 32.6162 14.5124 32.4697 14.0859C32.3265 13.6595 32.2549 13.1777 32.2549 12.6406V12.25C32.2549 11.7129 32.3265 11.2327 32.4697 10.8096C32.613 10.3831 32.8148 10.0202 33.0752 9.7207C33.3389 9.41797 33.6497 9.18848 34.0078 9.03223C34.3691 8.87272 34.7679 8.79297 35.2041 8.79297C35.6436 8.79297 36.0439 8.87272 36.4053 9.03223C36.7666 9.18848 37.0775 9.41797 37.3379 9.7207C37.5983 10.0202 37.7985 10.3831 37.9385 10.8096C38.0817 11.2327 38.1533 11.7129 38.1533 12.25ZM36.9277 12.6406V12.2402C36.9277 11.8431 36.8887 11.4932 36.8105 11.1904C36.7357 10.8844 36.6234 10.6289 36.4736 10.4238C36.3271 10.2155 36.1465 10.0592 35.9316 9.95508C35.7168 9.84766 35.4743 9.79395 35.2041 9.79395C34.9339 9.79395 34.693 9.84766 34.4814 9.95508C34.2699 10.0592 34.0892 10.2155 33.9395 10.4238C33.793 10.6289 33.6807 10.8844 33.6025 11.1904C33.5244 11.4932 33.4854 11.8431 33.4854 12.2402V12.6406C33.4854 13.0378 33.5244 13.3893 33.6025 13.6953C33.6807 14.0013 33.7946 14.2601 33.9443 14.4717C34.0973 14.68 34.2796 14.8379 34.4912 14.9453C34.7028 15.0495 34.9437 15.1016 35.2139 15.1016C35.4873 15.1016 35.7298 15.0495 35.9414 14.9453C36.153 14.8379 36.332 14.68 36.4785 14.4717C36.625 14.2601 36.7357 14.0013 36.8105 13.6953C36.8887 13.3893 36.9277 13.0378 36.9277 12.6406ZM40.6191 8.89062L40.502 13.9053H39.4961L39.374 8.89062H40.6191ZM39.3398 15.4434C39.3398 15.2643 39.3984 15.1146 39.5156 14.9941C39.6361 14.8704 39.8021 14.8086 40.0137 14.8086C40.222 14.8086 40.3864 14.8704 40.5068 14.9941C40.6273 15.1146 40.6875 15.2643 40.6875 15.4434C40.6875 15.6159 40.6273 15.764 40.5068 15.8877C40.3864 16.0081 40.222 16.0684 40.0137 16.0684C39.8021 16.0684 39.6361 16.0081 39.5156 15.8877C39.3984 15.764 39.3398 15.6159 39.3398 15.4434Z" fill="white"/>
</svg>
