<svg width="60" height="25" viewBox="0 0 60 25" fill="none" xmlns="http://www.w3.org/2000/svg">
<rect width="60" height="25" rx="12.5" fill="#2B9740"/>
<path d="M11.4199 11.8594V12.8311H7.64551V11.8594H11.4199ZM7.94824 8.89062V16H6.72266V8.89062H7.94824ZM12.3623 8.89062V16H11.1416V8.89062H12.3623ZM19.4912 12.25V12.6406C19.4912 13.1777 19.4212 13.6595 19.2812 14.0859C19.1413 14.5124 18.9411 14.8753 18.6807 15.1748C18.4235 15.4743 18.1143 15.7038 17.7529 15.8633C17.3916 16.0195 16.9912 16.0977 16.5518 16.0977C16.1156 16.0977 15.7168 16.0195 15.3555 15.8633C14.9974 15.7038 14.6865 15.4743 14.4229 15.1748C14.1592 14.8753 13.9541 14.5124 13.8076 14.0859C13.6644 13.6595 13.5928 13.1777 13.5928 12.6406V12.25C13.5928 11.7129 13.6644 11.2327 13.8076 10.8096C13.9508 10.3831 14.1527 10.0202 14.4131 9.7207C14.6768 9.41797 14.9876 9.18848 15.3457 9.03223C15.707 8.87272 16.1058 8.79297 16.542 8.79297C16.9814 8.79297 17.3818 8.87272 17.7432 9.03223C18.1045 9.18848 18.4154 9.41797 18.6758 9.7207C18.9362 10.0202 19.1364 10.3831 19.2764 10.8096C19.4196 11.2327 19.4912 11.7129 19.4912 12.25ZM18.2656 12.6406V12.2402C18.2656 11.8431 18.2266 11.4932 18.1484 11.1904C18.0736 10.8844 17.9613 10.6289 17.8115 10.4238C17.665 10.2155 17.4844 10.0592 17.2695 9.95508C17.0547 9.84766 16.8122 9.79395 16.542 9.79395C16.2718 9.79395 16.0309 9.84766 15.8193 9.95508C15.6077 10.0592 15.4271 10.2155 15.2773 10.4238C15.1309 10.6289 15.0186 10.8844 14.9404 11.1904C14.8623 11.4932 14.8232 11.8431 14.8232 12.2402V12.6406C14.8232 13.0378 14.8623 13.3893 14.9404 13.6953C15.0186 14.0013 15.1325 14.2601 15.2822 14.4717C15.4352 14.68 15.6175 14.8379 15.8291 14.9453C16.0407 15.0495 16.2816 15.1016 16.5518 15.1016C16.8252 15.1016 17.0677 15.0495 17.2793 14.9453C17.4909 14.8379 17.6699 14.68 17.8164 14.4717C17.9629 14.2601 18.0736 14.0013 18.1484 13.6953C18.2266 13.3893 18.2656 13.0378 18.2656 12.6406ZM23.3828 12.7871H21.5713L21.5615 11.8936H23.1436C23.4105 11.8936 23.6367 11.8545 23.8223 11.7764C24.0111 11.695 24.1543 11.5794 24.252 11.4297C24.3496 11.2767 24.3984 11.0928 24.3984 10.8779C24.3984 10.6403 24.3529 10.4466 24.2617 10.2969C24.1706 10.1471 24.0306 10.0381 23.8418 9.96973C23.6562 9.90137 23.4186 9.86719 23.1289 9.86719H21.9424V16H20.7168V8.89062H23.1289C23.5195 8.89062 23.8678 8.92806 24.1738 9.00293C24.4831 9.0778 24.7451 9.19499 24.96 9.35449C25.1781 9.51074 25.3424 9.70931 25.4531 9.9502C25.5671 10.1911 25.624 10.4775 25.624 10.8096C25.624 11.1025 25.554 11.3711 25.4141 11.6152C25.2741 11.8561 25.0674 12.0531 24.7939 12.2061C24.5205 12.359 24.1803 12.4502 23.7734 12.4795L23.3828 12.7871ZM23.3291 16H21.1855L21.7373 15.0283H23.3291C23.6058 15.0283 23.8369 14.9827 24.0225 14.8916C24.208 14.7972 24.3464 14.6686 24.4375 14.5059C24.5319 14.3398 24.5791 14.1462 24.5791 13.9248C24.5791 13.6937 24.5384 13.4935 24.457 13.3242C24.3757 13.1517 24.2471 13.0199 24.0713 12.9287C23.8955 12.8343 23.666 12.7871 23.3828 12.7871H22.0059L22.0156 11.8936H23.8076L24.0859 12.2305C24.4766 12.2435 24.7972 12.3298 25.0479 12.4893C25.3018 12.6488 25.4906 12.8555 25.6143 13.1094C25.738 13.3633 25.7998 13.6367 25.7998 13.9297C25.7998 14.3822 25.7005 14.7614 25.502 15.0674C25.3066 15.3734 25.0251 15.6061 24.6572 15.7656C24.2894 15.9219 23.8467 16 23.3291 16ZM28.2461 14.0029L31.4004 8.89062H32.626V16H31.4004V10.8828L28.2461 16H27.0254V8.89062H28.2461V14.0029ZM38.793 11.8594V12.8311H35.0186V11.8594H38.793ZM35.3213 8.89062V16H34.0957V8.89062H35.3213ZM39.7354 8.89062V16H38.5146V8.89062H39.7354ZM42.4404 8.89062V16H41.2197V8.89062H42.4404ZM46.7178 8.89062L43.8271 12.9434H42.0938L41.9277 11.8789H43.1484L45.2188 8.89062H46.7178ZM45.4678 16L43.168 12.7578L43.959 11.8154L46.9375 16H45.4678ZM50.4092 9.83789L48.2852 16H47.001L49.6768 8.89062H50.4971L50.4092 9.83789ZM52.1865 16L50.0576 9.83789L49.9648 8.89062H50.79L53.4756 16H52.1865ZM52.084 13.3633V14.335H48.2168V13.3633H52.084Z" fill="white"/>
</svg>
