<svg width="160" height="160" viewBox="0 0 160 160" fill="none" xmlns="http://www.w3.org/2000/svg">
<path d="M9.65509 59.5C18.3656 28.6267 46.7411 6 80.4012 6C114.061 6 142.437 28.6267 151.147 59.5M9.65509 99.5C18.3656 130.373 46.7411 153 80.4012 153C114.061 153 142.437 130.373 151.147 99.5" stroke="#FAA100" stroke-width="10" stroke-linecap="round"/>
<path d="M32 62.6496C38.6716 41.3585 57.6408 26 80 26C102.359 26 121.328 41.3585 128 62.6496M32 96.3504C38.6716 117.641 57.6408 133 80 133C102.359 133 121.328 117.641 128 96.3504" stroke="#FAA100" stroke-width="10" stroke-linecap="round"/>
<path d="M81.8404 112.214C71.8068 112.214 56 106.863 54.75 102.85C53.5 98.8362 55.5 93.485 61.1045 92.6489C66.7091 91.8128 75.2628 100.843 82.1748 100.843C85.0734 100.843 87.3587 100.174 89.031 98.8362C90.8147 97.3869 91.7065 95.6031 91.7065 93.485C91.7065 90.3634 87.5817 87.5764 79.332 85.1237C79.1089 85.0123 78.8303 84.9008 78.4958 84.7893C78.2729 84.6778 78.1057 84.6222 77.9941 84.6222C65.0622 81.1661 58.5962 75.3133 58.5962 67.0636C58.5962 61.2664 60.7701 56.6399 65.1179 53.184C69.5772 49.728 75.4301 48 82.6765 48C89.8113 48 100.655 50.709 103.078 54.3545C105.5 58 103.5 64 98.2283 64.0535C92.9565 64.107 87.6931 59.0368 81.6731 59.0368C74.6496 59.0368 71.138 61.2664 71.138 65.7257C71.138 67.6209 71.8068 69.0145 73.1446 69.9064C74.594 70.6868 76.9351 71.4671 80.1681 72.2475C85.0734 73.5853 89.1982 74.923 92.5426 76.2609C94.7723 77.2643 96.7233 78.3233 98.3955 79.4381C102.632 82.3367 104.75 86.7402 104.75 92.6489C104.75 98.4459 102.576 103.184 98.2283 106.863C93.992 110.43 88.5293 112.214 81.8404 112.214Z" fill="#FF3D00"/>
</svg>
